<?xml version="1.0" standalone="no"?>
<!DOCTYPE svg PUBLIC "-//W3C//DTD SVG 20010904//EN"
 "http://www.w3.org/TR/2001/REC-SVG-20010904/DTD/svg10.dtd">
<svg version="1.0" xmlns="http://www.w3.org/2000/svg"
 width="400.000000pt" height="400.000000pt" viewBox="0 0 400.000000 400.000000"
 preserveAspectRatio="xMidYMid meet">
<metadata>
Created by potrace 1.14, written by Peter Selinger 2001-2017
</metadata>
<g transform="translate(0.000000,400.000000) scale(0.100000,-0.100000)"
fill="#000000" stroke="none">
<path d="M1780 3989 c-368 -43 -755 -204 -1030 -429 -235 -192 -415 -418 -546
-685 -371 -754 -227 -1655 360 -2264 602 -623 1536 -788 2311 -407 214 105
346 199 519 366 175 170 300 342 406 562 365 755 222 1645 -359 2252 -325 339
-763 554 -1233 605 -112 13 -319 12 -428 0z m434 -1182 c35 -52 67 -271 86
-584 5 -95 10 -181 10 -193 0 -11 7 -20 15 -20 26 0 29 -29 7 -53 -20 -22 -21
-27 -11 -183 11 -170 18 -215 36 -221 17 -6 81 55 124 118 21 32 76 132 121
223 45 92 87 166 95 166 34 0 1 -115 -84 -284 -75 -151 -155 -269 -211 -312
-46 -35 -49 -36 -117 -31 -76 5 -120 20 -131 46 -3 9 -9 112 -12 229 -4 203
-6 212 -24 212 -34 0 -311 -21 -345 -26 -31 -5 -32 -7 -73 -137 -94 -296 -90
-287 -124 -308 -19 -11 -49 -19 -78 -19 -97 0 -101 56 -14 185 41 60 136 248
136 268 0 1 -25 2 -56 3 -66 1 -88 18 -88 70 0 55 22 66 121 62 l83 -3 73 155
c189 397 358 660 427 660 11 0 26 -10 34 -23z m586 -1462 c0 -23 -6 -37 -18
-44 -32 -17 -507 -109 -727 -140 -321 -46 -806 -91 -841 -77 -10 4 -14 16 -12
38 l3 33 70 7 c39 3 140 11 225 17 340 25 802 93 1125 165 83 19 156 34 163
35 7 1 12 -12 12 -34z"/>
<path d="M2047 2558 c-69 -108 -257 -510 -257 -550 0 -4 79 -8 175 -8 l176 0
-6 118 c-2 64 -7 187 -10 272 -8 232 -21 258 -78 168z"/>
</g>
</svg>
